<!DOCTYPE svg PUBLIC "-//W3C//DTD SVG 20010904//EN" "http://www.w3.org/TR/2001/REC-SVG-20010904/DTD/svg10.dtd">
<svg version="1.0" xmlns="http://www.w3.org/2000/svg" width="686px" height="666px" viewBox="0 0 6860 6660" preserveAspectRatio="xMidYMid meet">
<g id="layer101" fill="#333f4f" stroke="none">
 <path d="M2679 6613 c-11 -26 -62 -172 -114 -323 -106 -311 -146 -413 -172 -442 -10 -11 -81 -51 -159 -89 l-141 -68 -374 130 c-206 71 -390 136 -411 144 l-36 14 -284 -352 c-437 -541 -633 -788 -631 -796 1 -4 104 -168 229 -366 125 -197 227 -364 227 -370 -3 -41 -58 -265 -74 -298 -25 -51 -68 -81 -449 -315 -249 -154 -275 -172 -278 -198 -3 -33 305 -1395 319 -1408 2 -3 69 -11 149 -20 748 -81 684 -70 744 -125 27 -25 80 -87 118 -138 l69 -92 -46 -408 c-25 -224 -47 -417 -48 -428 -3 -26 19 -37 433 -232 184 -86 453 -217 597 -290 145 -73 273 -133 286 -133 16 0 52 32 127 116 58 64 193 201 300 305 l195 189 180 0 180 0 305 -304 305 -304 190 91 c1061 506 1120 535 1123 556 2 12 -18 205 -43 430 l-47 409 85 114 c83 113 119 148 171 167 24 10 395 54 689 83 70 6 131 14 135 17 10 7 322 1367 322 1401 0 22 -42 51 -343 238 -188 117 -353 221 -366 231 -19 15 -30 46 -61 184 l-37 167 102 162 c56 90 161 255 233 368 109 171 128 207 118 220 -7 8 -130 161 -273 340 -377 472 -623 775 -632 778 -4 1 -188 -61 -410 -138 -268 -93 -411 -138 -425 -134 -65 20 -266 126 -288 153 -31 36 -60 111 -188 482 -54 158 -103 296 -109 308 l-12 21 -730 0 -730 0 -20 -47z m1207 -738 c51 -143 105 -296 121 -339 l30 -80 139 -63 c76 -35 233 -109 347 -165 l208 -102 132 43 c73 24 226 77 341 117 168 59 212 72 222 62 24 -27 412 -516 424 -535 12 -18 -5 -49 -171 -309 -165 -259 -184 -293 -183 -329 2 -45 160 -735 172 -747 4 -4 108 -69 232 -146 390 -240 370 -226 360 -264 -5 -18 -41 -175 -81 -348 -39 -173 -72 -316 -73 -317 -1 -1 -159 -19 -351 -40 l-350 -37 -27 -29 c-15 -15 -128 -153 -251 -306 l-224 -279 39 -333 c21 -184 37 -345 35 -358 -2 -21 -41 -43 -322 -176 l-320 -153 -255 250 -255 250 -393 -1 -393 0 -250 -245 c-137 -135 -254 -246 -259 -246 -13 0 -635 292 -646 303 -3 2 14 163 36 357 l40 352 -57 72 c-299 374 -436 536 -456 541 -12 2 -170 20 -352 40 -181 20 -332 39 -336 43 -14 17 -162 694 -153 700 19 13 509 318 549 342 22 13 41 24 43 25 4 3 172 732 174 757 1 15 -63 125 -174 299 -97 152 -181 286 -187 297 -10 20 10 49 210 299 122 153 223 280 225 281 1 2 112 -34 246 -81 134 -46 287 -99 342 -117 l98 -32 227 110 c124 61 280 136 346 165 l120 55 29 73 c16 41 64 175 107 299 44 124 86 244 95 268 l16 42 361 -2 362 -3 91 -260z"/>
 <path d="M3205 4664 c-354 -64 -670 -269 -867 -563 -171 -256 -243 -533 -217 -836 50 -575 457 -1036 1034 -1171 113 -27 423 -27 543 -1 531 117 914 505 1028 1042 24 112 24 380 0 490 -86 399 -338 731 -692 912 -114 59 -256 106 -380 128 -109 19 -341 18 -449 -1z m400 -389 c431 -82 745 -459 745 -894 0 -415 -263 -765 -666 -887 -80 -24 -104 -27 -249 -27 -135 -1 -172 3 -240 21 -325 90 -570 339 -663 674 -13 48 -17 99 -16 218 1 138 4 165 27 243 90 293 303 519 587 619 132 47 331 61 475 33z"/>
 </g>

</svg>